<svg width="100" height="24" viewBox="0 0 100 24" fill="none" xmlns="http://www.w3.org/2000/svg">
<path d="M40.9482 7.04688V17H39.0615L34.8301 10.0957V17H32.9502V7.04688H34.8301L39.0752 13.958V7.04688H40.9482ZM46.7998 15.4277V12.0166C46.7998 11.766 46.7565 11.5495 46.6699 11.3672C46.5833 11.1849 46.4512 11.0436 46.2734 10.9434C46.0957 10.8431 45.8701 10.793 45.5967 10.793C45.3551 10.793 45.1432 10.834 44.9609 10.916C44.7832 10.998 44.6465 11.1143 44.5508 11.2646C44.4551 11.4105 44.4072 11.5791 44.4072 11.7705H42.5957C42.5957 11.4652 42.6686 11.1758 42.8145 10.9023C42.9603 10.6243 43.1676 10.3783 43.4365 10.1641C43.71 9.94531 44.0358 9.77441 44.4141 9.65137C44.7969 9.52832 45.2253 9.4668 45.6992 9.4668C46.2598 9.4668 46.7588 9.5625 47.1963 9.75391C47.6383 9.94076 47.9847 10.2233 48.2354 10.6016C48.4906 10.9798 48.6182 11.4561 48.6182 12.0303V15.2568C48.6182 15.626 48.641 15.9427 48.6865 16.207C48.7367 16.4668 48.8096 16.6924 48.9053 16.8838V17H47.0664C46.9798 16.8132 46.9137 16.5762 46.8682 16.2891C46.8226 15.9974 46.7998 15.7103 46.7998 15.4277ZM47.0527 12.4951L47.0664 13.5684H45.9248C45.6423 13.5684 45.3939 13.598 45.1797 13.6572C44.9655 13.7119 44.79 13.7939 44.6533 13.9033C44.5166 14.0081 44.4141 14.1357 44.3457 14.2861C44.2773 14.432 44.2432 14.5983 44.2432 14.7852C44.2432 14.9674 44.2842 15.1315 44.3662 15.2773C44.4528 15.4232 44.5758 15.5394 44.7354 15.626C44.8994 15.708 45.0908 15.749 45.3096 15.749C45.6286 15.749 45.9066 15.6852 46.1436 15.5576C46.3805 15.4255 46.5651 15.266 46.6973 15.0791C46.8294 14.8923 46.9001 14.7145 46.9092 14.5459L47.4287 15.3252C47.3649 15.512 47.2692 15.7103 47.1416 15.9199C47.014 16.1296 46.8499 16.3255 46.6494 16.5078C46.4489 16.6901 46.2074 16.8405 45.9248 16.959C45.6423 17.0775 45.3141 17.1367 44.9404 17.1367C44.4619 17.1367 44.0335 17.041 43.6553 16.8496C43.277 16.6582 42.9785 16.3962 42.7598 16.0635C42.541 15.7308 42.4316 15.3525 42.4316 14.9287C42.4316 14.5368 42.5046 14.1904 42.6504 13.8896C42.7962 13.5889 43.0127 13.3359 43.2998 13.1309C43.5869 12.9212 43.9424 12.764 44.3662 12.6592C44.7946 12.5498 45.2845 12.4951 45.8359 12.4951H47.0527ZM47.1895 6.56152L48.2627 6.63672C48.2627 6.9694 48.1943 7.27018 48.0576 7.53906C47.9255 7.80339 47.7454 8.01302 47.5176 8.16797C47.2897 8.32292 47.0277 8.40039 46.7314 8.40039C46.5127 8.40039 46.3236 8.37077 46.1641 8.31152C46.0091 8.25228 45.8656 8.18164 45.7334 8.09961C45.6058 8.01758 45.4736 7.94694 45.3369 7.8877C45.2002 7.82389 45.0407 7.79199 44.8584 7.79199C44.6943 7.79199 44.5531 7.85352 44.4346 7.97656C44.3206 8.09961 44.2637 8.26595 44.2637 8.47559L43.1836 8.4209C43.1836 8.09277 43.2497 7.79427 43.3818 7.52539C43.514 7.25651 43.694 7.04232 43.9219 6.88281C44.1543 6.72331 44.4186 6.64355 44.7148 6.64355C44.9017 6.64355 45.0703 6.67318 45.2207 6.73242C45.3757 6.79167 45.5238 6.8623 45.665 6.94434C45.8063 7.02181 45.9499 7.09245 46.0957 7.15625C46.2461 7.21549 46.4079 7.24512 46.5811 7.24512C46.7497 7.24512 46.8932 7.18359 47.0117 7.06055C47.1302 6.9375 47.1895 6.77116 47.1895 6.56152ZM49.9238 13.377V13.2334C49.9238 12.6911 50.0013 12.1921 50.1562 11.7363C50.3112 11.276 50.5368 10.8773 50.833 10.54C51.1292 10.2028 51.4915 9.94076 51.9199 9.75391C52.3483 9.5625 52.8359 9.4668 53.3828 9.4668C53.9388 9.4668 54.431 9.5625 54.8594 9.75391C55.2923 9.94076 55.6569 10.2028 55.9531 10.54C56.2493 10.8773 56.4749 11.276 56.6299 11.7363C56.7848 12.1921 56.8623 12.6911 56.8623 13.2334V13.377C56.8623 13.9147 56.7848 14.4137 56.6299 14.874C56.4749 15.3298 56.2493 15.7285 55.9531 16.0703C55.6569 16.4076 55.2946 16.6696 54.8662 16.8564C54.4378 17.0433 53.9479 17.1367 53.3965 17.1367C52.8496 17.1367 52.3597 17.0433 51.9268 16.8564C51.4938 16.6696 51.1292 16.4076 50.833 16.0703C50.5368 15.7285 50.3112 15.3298 50.1562 14.874C50.0013 14.4137 49.9238 13.9147 49.9238 13.377ZM51.7285 13.2334V13.377C51.7285 13.7005 51.7604 14.0036 51.8242 14.2861C51.888 14.5687 51.986 14.8171 52.1182 15.0312C52.2503 15.2454 52.4212 15.4141 52.6309 15.5371C52.8451 15.6556 53.1003 15.7148 53.3965 15.7148C53.6882 15.7148 53.9388 15.6556 54.1484 15.5371C54.3581 15.4141 54.529 15.2454 54.6611 15.0312C54.7979 14.8171 54.8981 14.5687 54.9619 14.2861C55.0257 14.0036 55.0576 13.7005 55.0576 13.377V13.2334C55.0576 12.9144 55.0257 12.6159 54.9619 12.3379C54.8981 12.0553 54.7979 11.807 54.6611 11.5928C54.529 11.374 54.3558 11.2031 54.1416 11.0801C53.932 10.9525 53.679 10.8887 53.3828 10.8887C53.0911 10.8887 52.8405 10.9525 52.6309 11.0801C52.4212 11.2031 52.2503 11.374 52.1182 11.5928C51.986 11.807 51.888 12.0553 51.8242 12.3379C51.7604 12.6159 51.7285 12.9144 51.7285 13.2334ZM66.3643 9.60352H68.0049V16.7744C68.0049 17.4443 67.859 18.0117 67.5674 18.4766C67.2803 18.946 66.877 19.3014 66.3574 19.543C65.8379 19.7891 65.234 19.9121 64.5459 19.9121C64.2497 19.9121 63.9284 19.8711 63.582 19.7891C63.2402 19.707 62.9098 19.5771 62.5908 19.3994C62.2764 19.2262 62.0143 19.0007 61.8047 18.7227L62.6182 17.6562C62.8643 17.9434 63.1423 18.1598 63.4521 18.3057C63.762 18.4561 64.097 18.5312 64.457 18.5312C64.8216 18.5312 65.1315 18.4629 65.3867 18.3262C65.6465 18.194 65.8447 17.998 65.9814 17.7383C66.1227 17.4831 66.1934 17.1686 66.1934 16.7949V11.292L66.3643 9.60352ZM61.3672 13.3906V13.2471C61.3672 12.682 61.4355 12.1693 61.5723 11.709C61.709 11.2441 61.9049 10.8454 62.1602 10.5127C62.4199 10.18 62.7321 9.92253 63.0967 9.74023C63.4658 9.55794 63.8805 9.4668 64.3408 9.4668C64.8285 9.4668 65.2386 9.55566 65.5713 9.7334C65.9085 9.91113 66.1865 10.1641 66.4053 10.4922C66.6286 10.8203 66.8018 11.21 66.9248 11.6611C67.0524 12.1077 67.1504 12.5999 67.2188 13.1377V13.5273C67.1549 14.0514 67.0524 14.5322 66.9111 14.9697C66.7744 15.4072 66.5921 15.79 66.3643 16.1182C66.1364 16.4417 65.8538 16.6924 65.5166 16.8701C65.1794 17.0479 64.7829 17.1367 64.3271 17.1367C63.8714 17.1367 63.4613 17.0433 63.0967 16.8564C62.7321 16.6696 62.4199 16.4076 62.1602 16.0703C61.9049 15.7331 61.709 15.3366 61.5723 14.8809C61.4355 14.4251 61.3672 13.9284 61.3672 13.3906ZM63.1719 13.2471V13.3906C63.1719 13.7096 63.2038 14.0081 63.2676 14.2861C63.3314 14.5641 63.4294 14.8102 63.5615 15.0244C63.6937 15.234 63.86 15.3981 64.0605 15.5166C64.2611 15.6351 64.5003 15.6943 64.7783 15.6943C65.152 15.6943 65.4574 15.6169 65.6943 15.4619C65.9359 15.3024 66.1182 15.0859 66.2412 14.8125C66.3688 14.5345 66.4508 14.2223 66.4873 13.876V12.8027C66.4645 12.5293 66.4144 12.2764 66.3369 12.0439C66.264 11.8115 66.1615 11.611 66.0293 11.4424C65.8971 11.2738 65.7285 11.1416 65.5234 11.0459C65.3184 10.9502 65.0745 10.9023 64.792 10.9023C64.5186 10.9023 64.2793 10.9639 64.0742 11.0869C63.8691 11.2054 63.7005 11.3717 63.5684 11.5859C63.4362 11.8001 63.3359 12.0485 63.2676 12.3311C63.2038 12.6136 63.1719 12.9189 63.1719 13.2471ZM69.3105 13.377V13.2334C69.3105 12.6911 69.388 12.1921 69.543 11.7363C69.6979 11.276 69.9235 10.8773 70.2197 10.54C70.516 10.2028 70.8783 9.94076 71.3066 9.75391C71.735 9.5625 72.2227 9.4668 72.7695 9.4668C73.3255 9.4668 73.8177 9.5625 74.2461 9.75391C74.679 9.94076 75.0436 10.2028 75.3398 10.54C75.6361 10.8773 75.8617 11.276 76.0166 11.7363C76.1715 12.1921 76.249 12.6911 76.249 13.2334V13.377C76.249 13.9147 76.1715 14.4137 76.0166 14.874C75.8617 15.3298 75.6361 15.7285 75.3398 16.0703C75.0436 16.4076 74.6813 16.6696 74.2529 16.8564C73.8245 17.0433 73.3346 17.1367 72.7832 17.1367C72.2363 17.1367 71.7464 17.0433 71.3135 16.8564C70.8805 16.6696 70.516 16.4076 70.2197 16.0703C69.9235 15.7285 69.6979 15.3298 69.543 14.874C69.388 14.4137 69.3105 13.9147 69.3105 13.377ZM71.1152 13.2334V13.377C71.1152 13.7005 71.1471 14.0036 71.2109 14.2861C71.2747 14.5687 71.3727 14.8171 71.5049 15.0312C71.637 15.2454 71.8079 15.4141 72.0176 15.5371C72.2318 15.6556 72.487 15.7148 72.7832 15.7148C73.0749 15.7148 73.3255 15.6556 73.5352 15.5371C73.7448 15.4141 73.9157 15.2454 74.0479 15.0312C74.1846 14.8171 74.2848 14.5687 74.3486 14.2861C74.4124 14.0036 74.4443 13.7005 74.4443 13.377V13.2334C74.4443 12.9144 74.4124 12.6159 74.3486 12.3379C74.2848 12.0553 74.1846 11.807 74.0479 11.5928C73.9157 11.374 73.7425 11.2031 73.5283 11.0801C73.3187 10.9525 73.0658 10.8887 72.7695 10.8887C72.4779 10.8887 72.2272 10.9525 72.0176 11.0801C71.8079 11.2031 71.637 11.374 71.5049 11.5928C71.3727 11.807 71.2747 12.0553 71.2109 12.3379C71.1471 12.6159 71.1152 12.9144 71.1152 13.2334ZM81.6289 14.9766C81.6289 14.8216 81.5879 14.6826 81.5059 14.5596C81.4238 14.4365 81.2689 14.3249 81.041 14.2246C80.8177 14.1198 80.4896 14.0218 80.0566 13.9307C79.6738 13.8486 79.3206 13.7461 78.9971 13.623C78.6735 13.5 78.3955 13.3519 78.1631 13.1787C77.9307 13.001 77.7484 12.7936 77.6162 12.5566C77.4886 12.3151 77.4248 12.0371 77.4248 11.7227C77.4248 11.4173 77.4909 11.1302 77.623 10.8613C77.7552 10.5879 77.9466 10.3486 78.1973 10.1436C78.4479 9.93392 78.7533 9.76986 79.1133 9.65137C79.4733 9.52832 79.8789 9.4668 80.3301 9.4668C80.959 9.4668 81.499 9.56934 81.9502 9.77441C82.4059 9.97949 82.7546 10.262 82.9961 10.6221C83.2376 10.9775 83.3584 11.3786 83.3584 11.8252H81.5537C81.5537 11.6292 81.5081 11.4515 81.417 11.292C81.3304 11.1325 81.196 11.0049 81.0137 10.9092C80.8314 10.8089 80.6012 10.7588 80.3232 10.7588C80.0726 10.7588 79.8607 10.7998 79.6875 10.8818C79.5189 10.9639 79.3913 11.071 79.3047 11.2031C79.2181 11.3353 79.1748 11.4811 79.1748 11.6406C79.1748 11.7591 79.1976 11.8662 79.2432 11.9619C79.2933 12.0531 79.373 12.1374 79.4824 12.2148C79.5918 12.2923 79.7399 12.363 79.9268 12.4268C80.1182 12.4906 80.3529 12.5521 80.6309 12.6113C81.1823 12.7207 81.6631 12.8665 82.0732 13.0488C82.488 13.2266 82.8115 13.4635 83.0439 13.7598C83.2764 14.056 83.3926 14.4342 83.3926 14.8945C83.3926 15.2227 83.3219 15.5234 83.1807 15.7969C83.0394 16.0658 82.8343 16.3005 82.5654 16.501C82.2965 16.7015 81.9753 16.8587 81.6016 16.9727C81.2279 17.082 80.8063 17.1367 80.3369 17.1367C79.6579 17.1367 79.0837 17.016 78.6143 16.7744C78.1449 16.5283 77.7894 16.2184 77.5479 15.8447C77.3063 15.4665 77.1855 15.0745 77.1855 14.6689H78.915C78.9287 14.9561 79.0062 15.1862 79.1475 15.3594C79.2887 15.5326 79.4665 15.6579 79.6807 15.7354C79.8994 15.8083 80.1296 15.8447 80.3711 15.8447C80.6445 15.8447 80.8747 15.8083 81.0615 15.7354C81.2484 15.6579 81.3896 15.5553 81.4854 15.4277C81.5811 15.2956 81.6289 15.1452 81.6289 14.9766ZM88.2666 9.60352V10.9023H84.0283V9.60352H88.2666ZM85.1631 7.78516H86.9746V14.8672C86.9746 15.0859 87.0042 15.2546 87.0635 15.373C87.1227 15.4915 87.2116 15.5713 87.3301 15.6123C87.4486 15.6533 87.5898 15.6738 87.7539 15.6738C87.8724 15.6738 87.9818 15.667 88.082 15.6533C88.1823 15.6396 88.2666 15.626 88.335 15.6123L88.3418 16.9658C88.1914 17.016 88.0205 17.057 87.8291 17.0889C87.6423 17.1208 87.4303 17.1367 87.1934 17.1367C86.7878 17.1367 86.4323 17.0684 86.127 16.9316C85.8216 16.7904 85.5846 16.5648 85.416 16.2549C85.2474 15.9404 85.1631 15.5257 85.1631 15.0107V7.78516ZM92.792 17.1367C92.2314 17.1367 91.7279 17.0456 91.2812 16.8633C90.8346 16.681 90.4541 16.4281 90.1396 16.1045C89.8298 15.7764 89.5905 15.3958 89.4219 14.9629C89.2578 14.5254 89.1758 14.056 89.1758 13.5547V13.2812C89.1758 12.7116 89.2578 12.1943 89.4219 11.7295C89.5859 11.2601 89.8184 10.8568 90.1191 10.5195C90.4199 10.1823 90.7799 9.92253 91.1992 9.74023C91.6185 9.55794 92.0811 9.4668 92.5869 9.4668C93.111 9.4668 93.5736 9.55566 93.9746 9.7334C94.3757 9.90658 94.7106 10.1527 94.9795 10.4717C95.2484 10.7907 95.4512 11.1735 95.5879 11.6201C95.7246 12.0622 95.793 12.5521 95.793 13.0898V13.8486H89.9961V12.6045H94.0156V12.4678C94.0065 12.1807 93.9518 11.9186 93.8516 11.6816C93.7513 11.4401 93.5964 11.2487 93.3867 11.1074C93.1771 10.9616 92.9059 10.8887 92.5732 10.8887C92.3044 10.8887 92.0697 10.9479 91.8691 11.0664C91.6732 11.1803 91.5091 11.3444 91.377 11.5586C91.2493 11.7682 91.1536 12.0189 91.0898 12.3105C91.026 12.6022 90.9941 12.9258 90.9941 13.2812V13.5547C90.9941 13.8646 91.0352 14.1517 91.1172 14.416C91.2038 14.6803 91.3291 14.9105 91.4932 15.1064C91.6618 15.2979 91.8623 15.4482 92.0947 15.5576C92.3317 15.6624 92.6006 15.7148 92.9014 15.7148C93.2796 15.7148 93.6214 15.6419 93.9268 15.4961C94.2367 15.3457 94.5055 15.1247 94.7334 14.833L95.6426 15.7764C95.4876 16.0042 95.278 16.223 95.0137 16.4326C94.7539 16.6423 94.4395 16.8132 94.0703 16.9453C93.7012 17.0729 93.2751 17.1367 92.792 17.1367ZM98.917 9.60352V17H97.1055V9.60352H98.917ZM96.9824 7.66895C96.9824 7.40007 97.0736 7.17676 97.2559 6.99902C97.4427 6.82129 97.6934 6.73242 98.0078 6.73242C98.3223 6.73242 98.5706 6.82129 98.7529 6.99902C98.9398 7.17676 99.0332 7.40007 99.0332 7.66895C99.0332 7.93327 98.9398 8.1543 98.7529 8.33203C98.5706 8.50977 98.3223 8.59863 98.0078 8.59863C97.6934 8.59863 97.4427 8.50977 97.2559 8.33203C97.0736 8.1543 96.9824 7.93327 96.9824 7.66895Z" fill="black"/>
<path d="M17 2H19.67C20.236 1.98999 20.7859 2.18813 21.2154 2.55681C21.6449 2.9255 21.9241 3.43905 22 4V11C21.9241 11.5609 21.6449 12.0745 21.2154 12.4432C20.7859 12.8119 20.236 13.01 19.67 13H17M10 15V19C10 19.7956 10.3161 20.5587 10.8787 21.1213C11.4413 21.6839 12.2044 22 13 22L17 13V2H5.72C5.23767 1.99454 4.76962 2.16359 4.40209 2.47599C4.03457 2.78839 3.79232 3.22309 3.72 3.7L2.34 12.7C2.29649 12.9866 2.31583 13.2793 2.39666 13.5577C2.47749 13.8362 2.6179 14.0937 2.80814 14.3125C2.99839 14.5313 3.23392 14.7061 3.49843 14.8248C3.76294 14.9435 4.05009 15.0033 4.34 15H10Z" stroke="black" stroke-linecap="round" stroke-linejoin="round"/>
</svg>
