<svg width="95" height="24" viewBox="0 0 95 24" fill="none" xmlns="http://www.w3.org/2000/svg">
<path d="M35.9238 17H33.7773L33.791 15.5234H35.9238C36.5026 15.5234 36.988 15.3958 37.3799 15.1406C37.7718 14.8809 38.068 14.5094 38.2686 14.0264C38.4691 13.5387 38.5693 12.9554 38.5693 12.2764V11.7637C38.5693 11.2396 38.5124 10.777 38.3984 10.376C38.2845 9.97493 38.1159 9.6377 37.8926 9.36426C37.6738 9.09082 37.4027 8.88346 37.0791 8.74219C36.7555 8.60091 36.3841 8.53027 35.9648 8.53027H33.7363V7.04688H35.9648C36.6302 7.04688 37.2363 7.15853 37.7832 7.38184C38.3346 7.60514 38.8109 7.92643 39.2119 8.3457C39.6175 8.76042 39.9274 9.25716 40.1416 9.83594C40.3604 10.4147 40.4697 11.0618 40.4697 11.7773V12.2764C40.4697 12.9873 40.3604 13.6344 40.1416 14.2178C39.9274 14.7965 39.6175 15.2933 39.2119 15.708C38.8109 16.1227 38.3324 16.4417 37.7764 16.665C37.2204 16.8883 36.6029 17 35.9238 17ZM34.8301 7.04688V17H32.9502V7.04688H34.8301ZM41.6113 13.377V13.2334C41.6113 12.6911 41.6888 12.1921 41.8438 11.7363C41.9987 11.276 42.2243 10.8773 42.5205 10.54C42.8167 10.2028 43.179 9.94076 43.6074 9.75391C44.0358 9.5625 44.5234 9.4668 45.0703 9.4668C45.6263 9.4668 46.1185 9.5625 46.5469 9.75391C46.9798 9.94076 47.3444 10.2028 47.6406 10.54C47.9368 10.8773 48.1624 11.276 48.3174 11.7363C48.4723 12.1921 48.5498 12.6911 48.5498 13.2334V13.377C48.5498 13.9147 48.4723 14.4137 48.3174 14.874C48.1624 15.3298 47.9368 15.7285 47.6406 16.0703C47.3444 16.4076 46.9821 16.6696 46.5537 16.8564C46.1253 17.0433 45.6354 17.1367 45.084 17.1367C44.5371 17.1367 44.0472 17.0433 43.6143 16.8564C43.1813 16.6696 42.8167 16.4076 42.5205 16.0703C42.2243 15.7285 41.9987 15.3298 41.8438 14.874C41.6888 14.4137 41.6113 13.9147 41.6113 13.377ZM43.416 13.2334V13.377C43.416 13.7005 43.4479 14.0036 43.5117 14.2861C43.5755 14.5687 43.6735 14.8171 43.8057 15.0312C43.9378 15.2454 44.1087 15.4141 44.3184 15.5371C44.5326 15.6556 44.7878 15.7148 45.084 15.7148C45.3757 15.7148 45.6263 15.6556 45.8359 15.5371C46.0456 15.4141 46.2165 15.2454 46.3486 15.0312C46.4854 14.8171 46.5856 14.5687 46.6494 14.2861C46.7132 14.0036 46.7451 13.7005 46.7451 13.377V13.2334C46.7451 12.9144 46.7132 12.6159 46.6494 12.3379C46.5856 12.0553 46.4854 11.807 46.3486 11.5928C46.2165 11.374 46.0433 11.2031 45.8291 11.0801C45.6195 10.9525 45.3665 10.8887 45.0703 10.8887C44.7786 10.8887 44.528 10.9525 44.3184 11.0801C44.1087 11.2031 43.9378 11.374 43.8057 11.5928C43.6735 11.807 43.5755 12.0553 43.5117 12.3379C43.4479 12.6159 43.416 12.9144 43.416 13.2334ZM51.9199 15.2227L53.54 9.60352H54.6885L54.3467 11.5449L52.7129 17H51.7217L51.9199 15.2227ZM51.0244 9.60352L52.2412 15.2363L52.3506 17H51.209L49.2676 9.60352H51.0244ZM56.1924 15.1543L57.3818 9.60352H59.1318L57.2041 17H56.0625L56.1924 15.1543ZM54.8662 9.60352L56.4727 15.168L56.6846 17H55.6934L54.0459 11.5449L53.7109 9.60352H54.8662ZM61.9688 11.1826V17H60.1641V9.60352H61.8594L61.9688 11.1826ZM61.6816 13.0352H61.1484C61.153 12.4974 61.2259 12.0098 61.3672 11.5723C61.5085 11.1348 61.7067 10.7588 61.9619 10.4443C62.2217 10.1299 62.5293 9.88835 62.8848 9.71973C63.2402 9.55111 63.6367 9.4668 64.0742 9.4668C64.4297 9.4668 64.751 9.51693 65.0381 9.61719C65.3252 9.71745 65.5713 9.87695 65.7764 10.0957C65.986 10.3145 66.1455 10.6016 66.2549 10.957C66.3688 11.3079 66.4258 11.7409 66.4258 12.2559V17H64.6074V12.2422C64.6074 11.9049 64.5573 11.6383 64.457 11.4424C64.3613 11.2464 64.2201 11.1074 64.0332 11.0254C63.8509 10.9434 63.6253 10.9023 63.3564 10.9023C63.0785 10.9023 62.8346 10.9593 62.625 11.0732C62.4199 11.1826 62.2467 11.3353 62.1055 11.5312C61.9688 11.7272 61.8639 11.9528 61.791 12.208C61.7181 12.4632 61.6816 12.7389 61.6816 13.0352ZM69.9326 6.5V17H68.1211V6.5H69.9326ZM71.334 13.377V13.2334C71.334 12.6911 71.4115 12.1921 71.5664 11.7363C71.7214 11.276 71.9469 10.8773 72.2432 10.54C72.5394 10.2028 72.9017 9.94076 73.3301 9.75391C73.7585 9.5625 74.2461 9.4668 74.793 9.4668C75.349 9.4668 75.8411 9.5625 76.2695 9.75391C76.7025 9.94076 77.0671 10.2028 77.3633 10.54C77.6595 10.8773 77.8851 11.276 78.04 11.7363C78.195 12.1921 78.2725 12.6911 78.2725 13.2334V13.377C78.2725 13.9147 78.195 14.4137 78.04 14.874C77.8851 15.3298 77.6595 15.7285 77.3633 16.0703C77.0671 16.4076 76.7048 16.6696 76.2764 16.8564C75.848 17.0433 75.3581 17.1367 74.8066 17.1367C74.2598 17.1367 73.7699 17.0433 73.3369 16.8564C72.904 16.6696 72.5394 16.4076 72.2432 16.0703C71.9469 15.7285 71.7214 15.3298 71.5664 14.874C71.4115 14.4137 71.334 13.9147 71.334 13.377ZM73.1387 13.2334V13.377C73.1387 13.7005 73.1706 14.0036 73.2344 14.2861C73.2982 14.5687 73.3962 14.8171 73.5283 15.0312C73.6605 15.2454 73.8314 15.4141 74.041 15.5371C74.2552 15.6556 74.5104 15.7148 74.8066 15.7148C75.0983 15.7148 75.349 15.6556 75.5586 15.5371C75.7682 15.4141 75.9391 15.2454 76.0713 15.0312C76.208 14.8171 76.3083 14.5687 76.3721 14.2861C76.4359 14.0036 76.4678 13.7005 76.4678 13.377V13.2334C76.4678 12.9144 76.4359 12.6159 76.3721 12.3379C76.3083 12.0553 76.208 11.807 76.0713 11.5928C75.9391 11.374 75.766 11.2031 75.5518 11.0801C75.3421 10.9525 75.0892 10.8887 74.793 10.8887C74.5013 10.8887 74.2507 10.9525 74.041 11.0801C73.8314 11.2031 73.6605 11.374 73.5283 11.5928C73.3962 11.807 73.2982 12.0553 73.2344 12.3379C73.1706 12.6159 73.1387 12.9144 73.1387 13.2334ZM83.6592 15.4277V12.0166C83.6592 11.766 83.6159 11.5495 83.5293 11.3672C83.4427 11.1849 83.3105 11.0436 83.1328 10.9434C82.9551 10.8431 82.7295 10.793 82.4561 10.793C82.2145 10.793 82.0026 10.834 81.8203 10.916C81.6426 10.998 81.5059 11.1143 81.4102 11.2646C81.3145 11.4105 81.2666 11.5791 81.2666 11.7705H79.4551C79.4551 11.4652 79.528 11.1758 79.6738 10.9023C79.8197 10.6243 80.027 10.3783 80.2959 10.1641C80.5693 9.94531 80.8952 9.77441 81.2734 9.65137C81.6562 9.52832 82.0846 9.4668 82.5586 9.4668C83.1191 9.4668 83.6182 9.5625 84.0557 9.75391C84.4977 9.94076 84.8441 10.2233 85.0947 10.6016C85.3499 10.9798 85.4775 11.4561 85.4775 12.0303V15.2568C85.4775 15.626 85.5003 15.9427 85.5459 16.207C85.596 16.4668 85.6689 16.6924 85.7646 16.8838V17H83.9258C83.8392 16.8132 83.7731 16.5762 83.7275 16.2891C83.682 15.9974 83.6592 15.7103 83.6592 15.4277ZM83.9121 12.4951L83.9258 13.5684H82.7842C82.5016 13.5684 82.2533 13.598 82.0391 13.6572C81.8249 13.7119 81.6494 13.7939 81.5127 13.9033C81.376 14.0081 81.2734 14.1357 81.2051 14.2861C81.1367 14.432 81.1025 14.5983 81.1025 14.7852C81.1025 14.9674 81.1436 15.1315 81.2256 15.2773C81.3122 15.4232 81.4352 15.5394 81.5947 15.626C81.7588 15.708 81.9502 15.749 82.1689 15.749C82.488 15.749 82.766 15.6852 83.0029 15.5576C83.2399 15.4255 83.4245 15.266 83.5566 15.0791C83.6888 14.8923 83.7594 14.7145 83.7686 14.5459L84.2881 15.3252C84.2243 15.512 84.1286 15.7103 84.001 15.9199C83.8734 16.1296 83.7093 16.3255 83.5088 16.5078C83.3083 16.6901 83.0667 16.8405 82.7842 16.959C82.5016 17.0775 82.1735 17.1367 81.7998 17.1367C81.3213 17.1367 80.8929 17.041 80.5146 16.8496C80.1364 16.6582 79.8379 16.3962 79.6191 16.0635C79.4004 15.7308 79.291 15.3525 79.291 14.9287C79.291 14.5368 79.3639 14.1904 79.5098 13.8896C79.6556 13.5889 79.8721 13.3359 80.1592 13.1309C80.4463 12.9212 80.8018 12.764 81.2256 12.6592C81.654 12.5498 82.1439 12.4951 82.6953 12.4951H83.9121ZM91.541 15.4277V6.5H93.3594V17H91.7188L91.541 15.4277ZM86.79 13.3906V13.2471C86.79 12.682 86.8538 12.1693 86.9814 11.709C87.1136 11.2441 87.305 10.8454 87.5557 10.5127C87.8063 10.18 88.1094 9.92253 88.4648 9.74023C88.8249 9.55794 89.2327 9.4668 89.6885 9.4668C90.1305 9.4668 90.5156 9.55566 90.8438 9.7334C91.1764 9.91113 91.459 10.1641 91.6914 10.4922C91.9284 10.8203 92.1175 11.21 92.2588 11.6611C92.4001 12.1077 92.5026 12.5999 92.5664 13.1377V13.5273C92.5026 14.0514 92.4001 14.5322 92.2588 14.9697C92.1175 15.4072 91.9284 15.79 91.6914 16.1182C91.459 16.4417 91.1764 16.6924 90.8438 16.8701C90.5111 17.0479 90.1214 17.1367 89.6748 17.1367C89.2236 17.1367 88.818 17.0433 88.458 16.8564C88.1025 16.6696 87.7995 16.4076 87.5488 16.0703C87.3027 15.7331 87.1136 15.3366 86.9814 14.8809C86.8538 14.4251 86.79 13.9284 86.79 13.3906ZM88.6016 13.2471V13.3906C88.6016 13.7096 88.6289 14.0081 88.6836 14.2861C88.7383 14.5641 88.8271 14.8102 88.9502 15.0244C89.0732 15.234 89.2305 15.3981 89.4219 15.5166C89.6178 15.6351 89.8548 15.6943 90.1328 15.6943C90.4883 15.6943 90.7799 15.6169 91.0078 15.4619C91.2402 15.3024 91.4202 15.0859 91.5479 14.8125C91.6755 14.5345 91.7575 14.2223 91.7939 13.876V12.8027C91.7757 12.5293 91.7279 12.2764 91.6504 12.0439C91.5775 11.8115 91.4727 11.611 91.3359 11.4424C91.2038 11.2738 91.0397 11.1416 90.8438 11.0459C90.6478 10.9502 90.4154 10.9023 90.1465 10.9023C89.8685 10.9023 89.6315 10.9639 89.4355 11.0869C89.2396 11.2054 89.0801 11.3717 88.957 11.5859C88.834 11.8001 88.7428 12.0485 88.6836 12.3311C88.6289 12.6136 88.6016 12.9189 88.6016 13.2471Z" fill="black"/>
<path d="M21 15V19C21 19.5304 20.7893 20.0391 20.4142 20.4142C20.0391 20.7893 19.5304 21 19 21H5C4.46957 21 3.96086 20.7893 3.58579 20.4142C3.21071 20.0391 3 19.5304 3 19V15" stroke="black" stroke-linecap="round" stroke-linejoin="round"/>
<path d="M7 10L12 15L17 10" stroke="black" stroke-linecap="round" stroke-linejoin="round"/>
<path d="M12 15V3" stroke="black" stroke-linecap="round" stroke-linejoin="round"/>
</svg>
