<svg width="63" height="24" viewBox="0 0 63 24" fill="none" xmlns="http://www.w3.org/2000/svg">
<path d="M39.458 15.5781V17H32.7178V15.7832L35.9512 12.29C36.2884 11.9072 36.555 11.5745 36.751 11.292C36.9469 11.0094 37.0859 10.7542 37.168 10.5264C37.2546 10.2939 37.2979 10.0729 37.2979 9.86328C37.2979 9.55794 37.2432 9.29134 37.1338 9.06348C37.0244 8.83105 36.8649 8.65104 36.6553 8.52344C36.4502 8.39583 36.1973 8.33203 35.8965 8.33203C35.5638 8.33203 35.279 8.40951 35.042 8.56445C34.8096 8.71484 34.6318 8.92448 34.5088 9.19336C34.3903 9.46224 34.3311 9.76986 34.3311 10.1162H32.5195C32.5195 9.52832 32.6562 8.99284 32.9297 8.50977C33.2031 8.02214 33.5951 7.63249 34.1055 7.34082C34.6159 7.04915 35.222 6.90332 35.9238 6.90332C36.6074 6.90332 37.1862 7.01725 37.6602 7.24512C38.1341 7.46842 38.4941 7.78743 38.7402 8.20215C38.9863 8.61686 39.1094 9.11133 39.1094 9.68555C39.1094 10.0046 39.057 10.319 38.9521 10.6289C38.8473 10.9388 38.6992 11.2464 38.5078 11.5518C38.321 11.8525 38.0977 12.1579 37.8379 12.4678C37.5781 12.7777 37.2887 13.0944 36.9697 13.418L35.0283 15.5781H39.458ZM46.0957 11.1211V17H44.291V9.60352H45.9932L46.0957 11.1211ZM45.8291 13.0352H45.2754C45.2754 12.5202 45.3369 12.0462 45.46 11.6133C45.5876 11.1803 45.7744 10.8044 46.0205 10.4854C46.2666 10.1618 46.5697 9.91113 46.9297 9.7334C47.2943 9.55566 47.7158 9.4668 48.1943 9.4668C48.527 9.4668 48.8324 9.51693 49.1104 9.61719C49.3883 9.71289 49.6276 9.86556 49.8281 10.0752C50.0332 10.2803 50.1904 10.5492 50.2998 10.8818C50.4092 11.21 50.4639 11.6042 50.4639 12.0645V17H48.6592V12.249C48.6592 11.9027 48.609 11.6315 48.5088 11.4355C48.4131 11.2396 48.2741 11.1029 48.0918 11.0254C47.9095 10.9434 47.6908 10.9023 47.4355 10.9023C47.153 10.9023 46.9092 10.9593 46.7041 11.0732C46.5036 11.1826 46.3372 11.3353 46.2051 11.5312C46.0775 11.7272 45.9818 11.9528 45.918 12.208C45.8587 12.4632 45.8291 12.7389 45.8291 13.0352ZM50.3271 12.7002L49.582 12.8369C49.5866 12.3721 49.6504 11.9368 49.7734 11.5312C49.8965 11.1211 50.0765 10.7633 50.3135 10.458C50.555 10.1481 50.8535 9.90658 51.209 9.7334C51.569 9.55566 51.9837 9.4668 52.4531 9.4668C52.8177 9.4668 53.1458 9.51921 53.4375 9.62402C53.7337 9.72428 53.9867 9.88607 54.1963 10.1094C54.4059 10.3281 54.5654 10.613 54.6748 10.9639C54.7887 11.3148 54.8457 11.7432 54.8457 12.249V17H53.0273V12.2422C53.0273 11.8822 52.9772 11.6064 52.877 11.415C52.7812 11.2236 52.6423 11.0915 52.46 11.0186C52.2777 10.9411 52.0635 10.9023 51.8174 10.9023C51.5667 10.9023 51.348 10.9502 51.1611 11.0459C50.9788 11.137 50.8239 11.2646 50.6963 11.4287C50.5732 11.5928 50.4798 11.7842 50.416 12.0029C50.3568 12.2171 50.3271 12.4495 50.3271 12.7002ZM58.3799 9.60352V17H56.5684V9.60352H58.3799ZM56.4453 7.66895C56.4453 7.40007 56.5365 7.17676 56.7188 6.99902C56.9056 6.82129 57.1562 6.73242 57.4707 6.73242C57.7852 6.73242 58.0335 6.82129 58.2158 6.99902C58.4027 7.17676 58.4961 7.40007 58.4961 7.66895C58.4961 7.93327 58.4027 8.1543 58.2158 8.33203C58.0335 8.50977 57.7852 8.59863 57.4707 8.59863C57.1562 8.59863 56.9056 8.50977 56.7188 8.33203C56.5365 8.1543 56.4453 7.93327 56.4453 7.66895ZM62.0166 6.5V17H60.2051V6.5H62.0166Z" fill="black"/>
<path d="M7 22H4C3.46957 22 2.96086 21.7893 2.58579 21.4142C2.21071 21.0391 2 20.5304 2 20V13C2 12.4696 2.21071 11.9609 2.58579 11.5858C2.96086 11.2107 3.46957 11 4 11H7M14 9V5C14 4.20435 13.6839 3.44129 13.1213 2.87868C12.5587 2.31607 11.7956 2 11 2L7 11V22H18.28C18.7623 22.0055 19.2304 21.8364 19.5979 21.524C19.9654 21.2116 20.2077 20.7769 20.28 20.3L21.66 11.3C21.7035 11.0134 21.6842 10.7207 21.6033 10.4423C21.5225 10.1638 21.3821 9.90629 21.1919 9.68751C21.0016 9.46873 20.7661 9.29393 20.5016 9.17522C20.2371 9.0565 19.9499 8.99672 19.66 9H14Z" stroke="black" stroke-linecap="round" stroke-linejoin="round"/>
</svg>
