<svg width="115" height="24" viewBox="0 0 115 24" fill="none" xmlns="http://www.w3.org/2000/svg">
<path d="M38.7744 13.7256H40.6543C40.6042 14.391 40.4196 14.9811 40.1006 15.4961C39.7816 16.0065 39.3372 16.4076 38.7676 16.6992C38.1979 16.9909 37.5075 17.1367 36.6963 17.1367C36.0719 17.1367 35.5091 17.0273 35.0078 16.8086C34.5111 16.5853 34.085 16.2686 33.7295 15.8584C33.3786 15.4437 33.1097 14.9469 32.9229 14.3682C32.736 13.7848 32.6426 13.1309 32.6426 12.4062V11.6475C32.6426 10.9229 32.7383 10.2689 32.9297 9.68555C33.1211 9.10221 33.3945 8.60547 33.75 8.19531C34.11 7.7806 34.5407 7.46159 35.042 7.23828C35.5479 7.01497 36.113 6.90332 36.7373 6.90332C37.5485 6.90332 38.2344 7.05371 38.7949 7.35449C39.3555 7.65072 39.7907 8.05859 40.1006 8.57812C40.4105 9.09766 40.5973 9.69466 40.6611 10.3691H38.7812C38.7448 9.94987 38.6536 9.5944 38.5078 9.30273C38.3665 9.01107 38.1523 8.79004 37.8652 8.63965C37.5827 8.4847 37.2067 8.40723 36.7373 8.40723C36.3727 8.40723 36.0514 8.47559 35.7734 8.6123C35.5 8.74902 35.2721 8.9541 35.0898 9.22754C34.9076 9.49642 34.7708 9.83366 34.6797 10.2393C34.5885 10.6403 34.543 11.1051 34.543 11.6338V12.4062C34.543 12.9121 34.584 13.3656 34.666 13.7666C34.748 14.1676 34.8757 14.5072 35.0488 14.7852C35.222 15.0632 35.4453 15.2751 35.7188 15.4209C35.9922 15.5667 36.318 15.6396 36.6963 15.6396C37.1566 15.6396 37.5303 15.5667 37.8174 15.4209C38.109 15.2751 38.3301 15.0609 38.4805 14.7783C38.6354 14.4958 38.7334 14.1449 38.7744 13.7256ZM41.6523 13.377V13.2334C41.6523 12.6911 41.7298 12.1921 41.8848 11.7363C42.0397 11.276 42.2653 10.8773 42.5615 10.54C42.8577 10.2028 43.2201 9.94076 43.6484 9.75391C44.0768 9.5625 44.5645 9.4668 45.1113 9.4668C45.6673 9.4668 46.1595 9.5625 46.5879 9.75391C47.0208 9.94076 47.3854 10.2028 47.6816 10.54C47.9779 10.8773 48.2035 11.276 48.3584 11.7363C48.5133 12.1921 48.5908 12.6911 48.5908 13.2334V13.377C48.5908 13.9147 48.5133 14.4137 48.3584 14.874C48.2035 15.3298 47.9779 15.7285 47.6816 16.0703C47.3854 16.4076 47.0231 16.6696 46.5947 16.8564C46.1663 17.0433 45.6764 17.1367 45.125 17.1367C44.5781 17.1367 44.0882 17.0433 43.6553 16.8564C43.2223 16.6696 42.8577 16.4076 42.5615 16.0703C42.2653 15.7285 42.0397 15.3298 41.8848 14.874C41.7298 14.4137 41.6523 13.9147 41.6523 13.377ZM43.457 13.2334V13.377C43.457 13.7005 43.4889 14.0036 43.5527 14.2861C43.6165 14.5687 43.7145 14.8171 43.8467 15.0312C43.9788 15.2454 44.1497 15.4141 44.3594 15.5371C44.5736 15.6556 44.8288 15.7148 45.125 15.7148C45.4167 15.7148 45.6673 15.6556 45.877 15.5371C46.0866 15.4141 46.2575 15.2454 46.3896 15.0312C46.5264 14.8171 46.6266 14.5687 46.6904 14.2861C46.7542 14.0036 46.7861 13.7005 46.7861 13.377V13.2334C46.7861 12.9144 46.7542 12.6159 46.6904 12.3379C46.6266 12.0553 46.5264 11.807 46.3896 11.5928C46.2575 11.374 46.0843 11.2031 45.8701 11.0801C45.6605 10.9525 45.4076 10.8887 45.1113 10.8887C44.8197 10.8887 44.569 10.9525 44.3594 11.0801C44.1497 11.2031 43.9788 11.374 43.8467 11.5928C43.7145 11.807 43.6165 12.0553 43.5527 12.3379C43.4889 12.6159 43.457 12.9144 43.457 13.2334ZM51.7012 11.1211V17H49.8965V9.60352H51.5986L51.7012 11.1211ZM51.4346 13.0352H50.8809C50.8809 12.5202 50.9424 12.0462 51.0654 11.6133C51.193 11.1803 51.3799 10.8044 51.626 10.4854C51.8721 10.1618 52.1751 9.91113 52.5352 9.7334C52.8997 9.55566 53.3213 9.4668 53.7998 9.4668C54.1325 9.4668 54.4378 9.51693 54.7158 9.61719C54.9938 9.71289 55.2331 9.86556 55.4336 10.0752C55.6387 10.2803 55.7959 10.5492 55.9053 10.8818C56.0146 11.21 56.0693 11.6042 56.0693 12.0645V17H54.2646V12.249C54.2646 11.9027 54.2145 11.6315 54.1143 11.4355C54.0186 11.2396 53.8796 11.1029 53.6973 11.0254C53.515 10.9434 53.2962 10.9023 53.041 10.9023C52.7585 10.9023 52.5146 10.9593 52.3096 11.0732C52.109 11.1826 51.9427 11.3353 51.8105 11.5312C51.6829 11.7272 51.5872 11.9528 51.5234 12.208C51.4642 12.4632 51.4346 12.7389 51.4346 13.0352ZM55.9326 12.7002L55.1875 12.8369C55.1921 12.3721 55.2559 11.9368 55.3789 11.5312C55.502 11.1211 55.682 10.7633 55.9189 10.458C56.1605 10.1481 56.459 9.90658 56.8145 9.7334C57.1745 9.55566 57.5892 9.4668 58.0586 9.4668C58.4232 9.4668 58.7513 9.51921 59.043 9.62402C59.3392 9.72428 59.5921 9.88607 59.8018 10.1094C60.0114 10.3281 60.1709 10.613 60.2803 10.9639C60.3942 11.3148 60.4512 11.7432 60.4512 12.249V17H58.6328V12.2422C58.6328 11.8822 58.5827 11.6064 58.4824 11.415C58.3867 11.2236 58.2477 11.0915 58.0654 11.0186C57.8831 10.9411 57.6689 10.9023 57.4229 10.9023C57.1722 10.9023 56.9535 10.9502 56.7666 11.0459C56.5843 11.137 56.4294 11.2646 56.3018 11.4287C56.1787 11.5928 56.0853 11.7842 56.0215 12.0029C55.9622 12.2171 55.9326 12.4495 55.9326 12.7002ZM63.876 11.0254V19.8438H62.0645V9.60352H63.7393L63.876 11.0254ZM68.627 13.2266V13.3701C68.627 13.9079 68.5632 14.4069 68.4355 14.8672C68.3125 15.3229 68.1302 15.7217 67.8887 16.0635C67.6471 16.4007 67.3464 16.665 66.9863 16.8564C66.6309 17.0433 66.2207 17.1367 65.7559 17.1367C65.3001 17.1367 64.9036 17.0501 64.5664 16.877C64.2292 16.6992 63.9443 16.4486 63.7119 16.125C63.4795 15.8014 63.2926 15.4255 63.1514 14.9971C63.0146 14.5641 62.9121 14.0924 62.8438 13.582V13.124C62.9121 12.5817 63.0146 12.0895 63.1514 11.6475C63.2926 11.2008 63.4795 10.8158 63.7119 10.4922C63.9443 10.1641 64.2269 9.91113 64.5596 9.7334C64.8968 9.55566 65.291 9.4668 65.7422 9.4668C66.2116 9.4668 66.624 9.55566 66.9795 9.7334C67.3395 9.91113 67.6426 10.1663 67.8887 10.499C68.1348 10.8317 68.3193 11.2282 68.4424 11.6885C68.5654 12.1488 68.627 12.6615 68.627 13.2266ZM66.8154 13.3701V13.2266C66.8154 12.8984 66.7858 12.5954 66.7266 12.3174C66.6673 12.0348 66.5762 11.7887 66.4531 11.5791C66.3301 11.3649 66.1706 11.1986 65.9746 11.0801C65.7786 10.9616 65.5417 10.9023 65.2637 10.9023C64.9857 10.9023 64.7464 10.9479 64.5459 11.0391C64.3454 11.1302 64.1813 11.2601 64.0537 11.4287C63.9261 11.5973 63.8258 11.7979 63.7529 12.0303C63.6846 12.2581 63.639 12.5111 63.6162 12.7891V13.9238C63.6572 14.2611 63.737 14.5641 63.8555 14.833C63.974 15.1019 64.1471 15.3161 64.375 15.4756C64.6074 15.6351 64.9082 15.7148 65.2773 15.7148C65.5553 15.7148 65.7923 15.6533 65.9883 15.5303C66.1842 15.4072 66.3438 15.2386 66.4668 15.0244C66.5898 14.8057 66.6787 14.555 66.7334 14.2725C66.7881 13.9899 66.8154 13.6891 66.8154 13.3701ZM74.0205 15.4277V12.0166C74.0205 11.766 73.9772 11.5495 73.8906 11.3672C73.804 11.1849 73.6719 11.0436 73.4941 10.9434C73.3164 10.8431 73.0908 10.793 72.8174 10.793C72.5758 10.793 72.3639 10.834 72.1816 10.916C72.0039 10.998 71.8672 11.1143 71.7715 11.2646C71.6758 11.4105 71.6279 11.5791 71.6279 11.7705H69.8164C69.8164 11.4652 69.8893 11.1758 70.0352 10.9023C70.181 10.6243 70.3883 10.3783 70.6572 10.1641C70.9307 9.94531 71.2565 9.77441 71.6348 9.65137C72.0176 9.52832 72.446 9.4668 72.9199 9.4668C73.4805 9.4668 73.9795 9.5625 74.417 9.75391C74.859 9.94076 75.2054 10.2233 75.4561 10.6016C75.7113 10.9798 75.8389 11.4561 75.8389 12.0303V15.2568C75.8389 15.626 75.8617 15.9427 75.9072 16.207C75.9574 16.4668 76.0303 16.6924 76.126 16.8838V17H74.2871C74.2005 16.8132 74.1344 16.5762 74.0889 16.2891C74.0433 15.9974 74.0205 15.7103 74.0205 15.4277ZM74.2734 12.4951L74.2871 13.5684H73.1455C72.863 13.5684 72.6146 13.598 72.4004 13.6572C72.1862 13.7119 72.0107 13.7939 71.874 13.9033C71.7373 14.0081 71.6348 14.1357 71.5664 14.2861C71.498 14.432 71.4639 14.5983 71.4639 14.7852C71.4639 14.9674 71.5049 15.1315 71.5869 15.2773C71.6735 15.4232 71.7965 15.5394 71.9561 15.626C72.1201 15.708 72.3115 15.749 72.5303 15.749C72.8493 15.749 73.1273 15.6852 73.3643 15.5576C73.6012 15.4255 73.7858 15.266 73.918 15.0791C74.0501 14.8923 74.1208 14.7145 74.1299 14.5459L74.6494 15.3252C74.5856 15.512 74.4899 15.7103 74.3623 15.9199C74.2347 16.1296 74.0706 16.3255 73.8701 16.5078C73.6696 16.6901 73.4281 16.8405 73.1455 16.959C72.863 17.0775 72.5348 17.1367 72.1611 17.1367C71.6826 17.1367 71.2542 17.041 70.876 16.8496C70.4977 16.6582 70.1992 16.3962 69.9805 16.0635C69.7617 15.7308 69.6523 15.3525 69.6523 14.9287C69.6523 14.5368 69.7253 14.1904 69.8711 13.8896C70.0169 13.5889 70.2334 13.3359 70.5205 13.1309C70.8076 12.9212 71.1631 12.764 71.5869 12.6592C72.0153 12.5498 72.5052 12.4951 73.0566 12.4951H74.2734ZM79.2705 11.1143V17H77.4658V9.60352H79.1748L79.2705 11.1143ZM81.5195 9.55566L81.4922 11.2373C81.3919 11.2191 81.278 11.2054 81.1504 11.1963C81.0273 11.1872 80.9111 11.1826 80.8018 11.1826C80.5238 11.1826 80.2799 11.2214 80.0703 11.2988C79.8607 11.3717 79.6852 11.4788 79.5439 11.6201C79.4072 11.7614 79.3024 11.9346 79.2295 12.1396C79.1566 12.3402 79.1156 12.568 79.1064 12.8232L78.7168 12.7754C78.7168 12.306 78.7646 11.8708 78.8604 11.4697C78.9561 11.0687 79.0951 10.7178 79.2773 10.417C79.4596 10.1162 79.6875 9.88379 79.9609 9.71973C80.2389 9.55111 80.5579 9.4668 80.918 9.4668C81.0182 9.4668 81.1253 9.47591 81.2393 9.49414C81.3577 9.50781 81.4512 9.52832 81.5195 9.55566ZM86.3525 9.60352V10.9023H82.1143V9.60352H86.3525ZM83.249 7.78516H85.0605V14.8672C85.0605 15.0859 85.0902 15.2546 85.1494 15.373C85.2087 15.4915 85.2975 15.5713 85.416 15.6123C85.5345 15.6533 85.6758 15.6738 85.8398 15.6738C85.9583 15.6738 86.0677 15.667 86.168 15.6533C86.2682 15.6396 86.3525 15.626 86.4209 15.6123L86.4277 16.9658C86.2773 17.016 86.1064 17.057 85.915 17.0889C85.7282 17.1208 85.5163 17.1367 85.2793 17.1367C84.8737 17.1367 84.5182 17.0684 84.2129 16.9316C83.9076 16.7904 83.6706 16.5648 83.502 16.2549C83.3333 15.9404 83.249 15.5257 83.249 15.0107V7.78516ZM89.4697 9.60352V17H87.6582V9.60352H89.4697ZM87.5352 7.66895C87.5352 7.40007 87.6263 7.17676 87.8086 6.99902C87.9954 6.82129 88.2461 6.73242 88.5605 6.73242C88.875 6.73242 89.1234 6.82129 89.3057 6.99902C89.4925 7.17676 89.5859 7.40007 89.5859 7.66895C89.5859 7.93327 89.4925 8.1543 89.3057 8.33203C89.1234 8.50977 88.875 8.59863 88.5605 8.59863C88.2461 8.59863 87.9954 8.50977 87.8086 8.33203C87.6263 8.1543 87.5352 7.93327 87.5352 7.66895ZM93.1064 6.5V17H91.2949V6.5H93.1064ZM96.5996 6.5V17H94.7881V6.5H96.5996ZM96.3125 13.0352H95.7793C95.7793 12.5202 95.8477 12.0462 95.9844 11.6133C96.1211 11.1803 96.3148 10.8044 96.5654 10.4854C96.8161 10.1618 97.1146 9.91113 97.4609 9.7334C97.8118 9.55566 98.1992 9.4668 98.623 9.4668C98.9876 9.4668 99.318 9.51921 99.6143 9.62402C99.915 9.72428 100.173 9.88607 100.387 10.1094C100.601 10.3327 100.765 10.6243 100.879 10.9844C100.997 11.3398 101.057 11.7728 101.057 12.2832V17H99.2383V12.2695C99.2383 11.9277 99.1882 11.6589 99.0879 11.4629C98.9876 11.2624 98.8441 11.1188 98.6572 11.0322C98.4749 10.9456 98.2493 10.9023 97.9805 10.9023C97.6888 10.9023 97.4382 10.9593 97.2285 11.0732C97.0189 11.1826 96.8457 11.3353 96.709 11.5312C96.5768 11.7272 96.4766 11.9528 96.4082 12.208C96.3444 12.4632 96.3125 12.7389 96.3125 13.0352ZM106.724 15.4277V12.0166C106.724 11.766 106.68 11.5495 106.594 11.3672C106.507 11.1849 106.375 11.0436 106.197 10.9434C106.02 10.8431 105.794 10.793 105.521 10.793C105.279 10.793 105.067 10.834 104.885 10.916C104.707 10.998 104.57 11.1143 104.475 11.2646C104.379 11.4105 104.331 11.5791 104.331 11.7705H102.52C102.52 11.4652 102.592 11.1758 102.738 10.9023C102.884 10.6243 103.091 10.3783 103.36 10.1641C103.634 9.94531 103.96 9.77441 104.338 9.65137C104.721 9.52832 105.149 9.4668 105.623 9.4668C106.184 9.4668 106.683 9.5625 107.12 9.75391C107.562 9.94076 107.909 10.2233 108.159 10.6016C108.414 10.9798 108.542 11.4561 108.542 12.0303V15.2568C108.542 15.626 108.565 15.9427 108.61 16.207C108.66 16.4668 108.733 16.6924 108.829 16.8838V17H106.99C106.904 16.8132 106.838 16.5762 106.792 16.2891C106.746 15.9974 106.724 15.7103 106.724 15.4277ZM106.977 12.4951L106.99 13.5684H105.849C105.566 13.5684 105.318 13.598 105.104 13.6572C104.889 13.7119 104.714 13.7939 104.577 13.9033C104.44 14.0081 104.338 14.1357 104.27 14.2861C104.201 14.432 104.167 14.5983 104.167 14.7852C104.167 14.9674 104.208 15.1315 104.29 15.2773C104.377 15.4232 104.5 15.5394 104.659 15.626C104.823 15.708 105.015 15.749 105.233 15.749C105.552 15.749 105.83 15.6852 106.067 15.5576C106.304 15.4255 106.489 15.266 106.621 15.0791C106.753 14.8923 106.824 14.7145 106.833 14.5459L107.353 15.3252C107.289 15.512 107.193 15.7103 107.065 15.9199C106.938 16.1296 106.774 16.3255 106.573 16.5078C106.373 16.6901 106.131 16.8405 105.849 16.959C105.566 17.0775 105.238 17.1367 104.864 17.1367C104.386 17.1367 103.957 17.041 103.579 16.8496C103.201 16.6582 102.902 16.3962 102.684 16.0635C102.465 15.7308 102.355 15.3525 102.355 14.9287C102.355 14.5368 102.428 14.1904 102.574 13.8896C102.72 13.5889 102.937 13.3359 103.224 13.1309C103.511 12.9212 103.866 12.764 104.29 12.6592C104.718 12.5498 105.208 12.4951 105.76 12.4951H106.977ZM111.974 11.1143V17H110.169V9.60352H111.878L111.974 11.1143ZM114.223 9.55566L114.195 11.2373C114.095 11.2191 113.981 11.2054 113.854 11.1963C113.73 11.1872 113.614 11.1826 113.505 11.1826C113.227 11.1826 112.983 11.2214 112.773 11.2988C112.564 11.3717 112.388 11.4788 112.247 11.6201C112.11 11.7614 112.006 11.9346 111.933 12.1396C111.86 12.3402 111.819 12.568 111.81 12.8232L111.42 12.7754C111.42 12.306 111.468 11.8708 111.563 11.4697C111.659 11.0687 111.798 10.7178 111.98 10.417C112.163 10.1162 112.391 9.88379 112.664 9.71973C112.942 9.55111 113.261 9.4668 113.621 9.4668C113.721 9.4668 113.828 9.47591 113.942 9.49414C114.061 9.50781 114.154 9.52832 114.223 9.55566Z" fill="black"/>
<path d="M18 8C19.6569 8 21 6.65685 21 5C21 3.34315 19.6569 2 18 2C16.3431 2 15 3.34315 15 5C15 6.65685 16.3431 8 18 8Z" stroke="black" stroke-linecap="round" stroke-linejoin="round"/>
<path d="M6 15C7.65685 15 9 13.6569 9 12C9 10.3431 7.65685 9 6 9C4.34315 9 3 10.3431 3 12C3 13.6569 4.34315 15 6 15Z" stroke="black" stroke-linecap="round" stroke-linejoin="round"/>
<path d="M18 22C19.6569 22 21 20.6569 21 19C21 17.3431 19.6569 16 18 16C16.3431 16 15 17.3431 15 19C15 20.6569 16.3431 22 18 22Z" stroke="black" stroke-linecap="round" stroke-linejoin="round"/>
<path d="M8.59 13.51L15.42 17.49" stroke="black" stroke-linecap="round" stroke-linejoin="round"/>
<path d="M15.41 6.50999L8.59 10.49" stroke="black" stroke-linecap="round" stroke-linejoin="round"/>
</svg>
