<svg width="159" height="40" viewBox="0 0 159 40" fill="none" xmlns="http://www.w3.org/2000/svg">
<rect width="159" height="40" rx="2" fill="#CC0000"/>
<path d="M37.9531 15.0469V25H36.0732V15.0469H37.9531ZM47.9814 15.0469V25H46.0947L41.8633 18.0957V25H39.9834V15.0469H41.8633L46.1084 21.958V15.0469H47.9814ZM55.1045 22.416C55.1045 22.2246 55.0749 22.0537 55.0156 21.9033C54.9609 21.7484 54.8584 21.6094 54.708 21.4863C54.5622 21.3587 54.3548 21.2357 54.0859 21.1172C53.8216 20.9941 53.4798 20.8665 53.0605 20.7344C52.5957 20.5885 52.1628 20.4245 51.7617 20.2422C51.3607 20.0599 51.0075 19.848 50.7021 19.6064C50.4014 19.3649 50.1667 19.0869 49.998 18.7725C49.8294 18.4535 49.7451 18.0843 49.7451 17.665C49.7451 17.2549 49.8317 16.8812 50.0049 16.5439C50.1826 16.2067 50.4333 15.9173 50.7568 15.6758C51.0804 15.4297 51.4609 15.2406 51.8984 15.1084C52.3405 14.9762 52.8281 14.9102 53.3613 14.9102C54.0996 14.9102 54.7376 15.0446 55.2754 15.3135C55.8177 15.5824 56.237 15.9469 56.5332 16.4072C56.8294 16.8675 56.9775 17.3848 56.9775 17.959H55.1045C55.1045 17.6491 55.0384 17.3757 54.9062 17.1387C54.7786 16.9017 54.5827 16.7148 54.3184 16.5781C54.0586 16.4414 53.7305 16.373 53.334 16.373C52.9512 16.373 52.6322 16.43 52.377 16.5439C52.1263 16.6579 51.9372 16.8128 51.8096 17.0088C51.6865 17.2048 51.625 17.4235 51.625 17.665C51.625 17.8473 51.6683 18.0114 51.7549 18.1572C51.8415 18.2985 51.9714 18.4329 52.1445 18.5605C52.3177 18.6836 52.5319 18.7998 52.7871 18.9092C53.0469 19.014 53.3477 19.1188 53.6895 19.2236C54.2363 19.3877 54.7148 19.57 55.125 19.7705C55.5397 19.971 55.8838 20.1989 56.1572 20.4541C56.4352 20.7093 56.6426 20.9964 56.7793 21.3154C56.9206 21.6344 56.9912 21.9967 56.9912 22.4023C56.9912 22.8307 56.9069 23.2135 56.7383 23.5508C56.5697 23.888 56.3281 24.1751 56.0137 24.4121C55.6992 24.6491 55.321 24.8291 54.8789 24.9521C54.4414 25.0752 53.9515 25.1367 53.4092 25.1367C52.9261 25.1367 52.4476 25.0729 51.9736 24.9453C51.5042 24.8132 51.0781 24.6172 50.6953 24.3574C50.3125 24.0931 50.0072 23.7604 49.7793 23.3594C49.5514 22.9538 49.4375 22.4798 49.4375 21.9375H51.3242C51.3242 22.252 51.3743 22.5208 51.4746 22.7441C51.5794 22.9629 51.7253 23.1429 51.9121 23.2842C52.1035 23.4209 52.3268 23.5212 52.582 23.585C52.8372 23.6488 53.113 23.6807 53.4092 23.6807C53.792 23.6807 54.1064 23.6283 54.3525 23.5234C54.6032 23.4141 54.79 23.2637 54.9131 23.0723C55.0407 22.8809 55.1045 22.6621 55.1045 22.416ZM64.2646 21.7256H66.1445C66.0944 22.391 65.9098 22.9811 65.5908 23.4961C65.2718 24.0065 64.8275 24.4076 64.2578 24.6992C63.6882 24.9909 62.9977 25.1367 62.1865 25.1367C61.5622 25.1367 60.9993 25.0273 60.498 24.8086C60.0013 24.5853 59.5752 24.2686 59.2197 23.8584C58.8688 23.4437 58.5999 22.9469 58.4131 22.3682C58.2262 21.7848 58.1328 21.1309 58.1328 20.4062V19.6475C58.1328 18.9229 58.2285 18.2689 58.4199 17.6855C58.6113 17.1022 58.8848 16.6055 59.2402 16.1953C59.6003 15.7806 60.0309 15.4616 60.5322 15.2383C61.0381 15.015 61.6032 14.9033 62.2275 14.9033C63.0387 14.9033 63.7246 15.0537 64.2852 15.3545C64.8457 15.6507 65.2809 16.0586 65.5908 16.5781C65.9007 17.0977 66.0876 17.6947 66.1514 18.3691H64.2715C64.235 17.9499 64.1439 17.5944 63.998 17.3027C63.8568 17.0111 63.6426 16.79 63.3555 16.6396C63.0729 16.4847 62.6969 16.4072 62.2275 16.4072C61.863 16.4072 61.5417 16.4756 61.2637 16.6123C60.9902 16.749 60.7624 16.9541 60.5801 17.2275C60.3978 17.4964 60.2611 17.8337 60.1699 18.2393C60.0788 18.6403 60.0332 19.1051 60.0332 19.6338V20.4062C60.0332 20.9121 60.0742 21.3656 60.1562 21.7666C60.2383 22.1676 60.3659 22.5072 60.5391 22.7852C60.7122 23.0632 60.9355 23.2751 61.209 23.4209C61.4824 23.5667 61.8083 23.6396 62.1865 23.6396C62.6468 23.6396 63.0205 23.5667 63.3076 23.4209C63.5993 23.2751 63.8203 23.0609 63.9707 22.7783C64.1257 22.4958 64.2236 22.1449 64.2646 21.7256ZM67.6006 15.0469H71.2168C71.9733 15.0469 72.6227 15.1608 73.165 15.3887C73.7074 15.6165 74.1243 15.9538 74.416 16.4004C74.7077 16.847 74.8535 17.3962 74.8535 18.0479C74.8535 18.5628 74.7624 19.0094 74.5801 19.3877C74.3978 19.766 74.1403 20.0827 73.8076 20.3379C73.4795 20.5931 73.0921 20.7936 72.6455 20.9395L72.0576 21.2402H68.8652L68.8516 19.7568H71.2373C71.6247 19.7568 71.946 19.6885 72.2012 19.5518C72.4564 19.415 72.6478 19.2259 72.7754 18.9844C72.9076 18.7428 72.9736 18.4671 72.9736 18.1572C72.9736 17.8245 72.9098 17.5374 72.7822 17.2959C72.6546 17.0498 72.4609 16.8607 72.2012 16.7285C71.9414 16.5964 71.6133 16.5303 71.2168 16.5303H69.4805V25H67.6006V15.0469ZM73.2197 25L70.916 20.543L72.9053 20.5361L75.2363 24.9043V25H73.2197ZM83.0977 23.5234V25H77.8066V23.5234H83.0977ZM78.3809 15.0469V25H76.501V15.0469H78.3809ZM82.4072 19.1553V20.5977H77.8066V19.1553H82.4072ZM83.0771 15.0469V16.5303H77.8066V15.0469H83.0771ZM87.9033 23.0518L90.3848 15.0469H92.4697L88.9561 25H87.5684L87.9033 23.0518ZM85.6133 15.0469L88.0811 23.0518L88.4365 25H87.0352L83.5352 15.0469H85.6133ZM96.9336 16.5576L94.0967 25H92.1074L95.8262 15.0469H97.0977L96.9336 16.5576ZM99.3057 25L96.4551 16.5576L96.2842 15.0469H97.5625L101.302 25H99.3057ZM99.1758 21.3018V22.7852H93.8369V21.3018H99.1758ZM105.786 20.0234V21.4521H102.047V20.0234H105.786ZM112.677 22.416C112.677 22.2246 112.647 22.0537 112.588 21.9033C112.533 21.7484 112.431 21.6094 112.28 21.4863C112.134 21.3587 111.927 21.2357 111.658 21.1172C111.394 20.9941 111.052 20.8665 110.633 20.7344C110.168 20.5885 109.735 20.4245 109.334 20.2422C108.933 20.0599 108.58 19.848 108.274 19.6064C107.974 19.3649 107.739 19.0869 107.57 18.7725C107.402 18.4535 107.317 18.0843 107.317 17.665C107.317 17.2549 107.404 16.8812 107.577 16.5439C107.755 16.2067 108.006 15.9173 108.329 15.6758C108.653 15.4297 109.033 15.2406 109.471 15.1084C109.913 14.9762 110.4 14.9102 110.934 14.9102C111.672 14.9102 112.31 15.0446 112.848 15.3135C113.39 15.5824 113.809 15.9469 114.105 16.4072C114.402 16.8675 114.55 17.3848 114.55 17.959H112.677C112.677 17.6491 112.611 17.3757 112.479 17.1387C112.351 16.9017 112.155 16.7148 111.891 16.5781C111.631 16.4414 111.303 16.373 110.906 16.373C110.523 16.373 110.204 16.43 109.949 16.5439C109.699 16.6579 109.509 16.8128 109.382 17.0088C109.259 17.2048 109.197 17.4235 109.197 17.665C109.197 17.8473 109.241 18.0114 109.327 18.1572C109.414 18.2985 109.544 18.4329 109.717 18.5605C109.89 18.6836 110.104 18.7998 110.359 18.9092C110.619 19.014 110.92 19.1188 111.262 19.2236C111.809 19.3877 112.287 19.57 112.697 19.7705C113.112 19.971 113.456 20.1989 113.729 20.4541C114.007 20.7093 114.215 20.9964 114.352 21.3154C114.493 21.6344 114.563 21.9967 114.563 22.4023C114.563 22.8307 114.479 23.2135 114.311 23.5508C114.142 23.888 113.9 24.1751 113.586 24.4121C113.271 24.6491 112.893 24.8291 112.451 24.9521C112.014 25.0752 111.524 25.1367 110.981 25.1367C110.498 25.1367 110.02 25.0729 109.546 24.9453C109.076 24.8132 108.65 24.6172 108.268 24.3574C107.885 24.0931 107.579 23.7604 107.352 23.3594C107.124 22.9538 107.01 22.4798 107.01 21.9375H108.896C108.896 22.252 108.947 22.5208 109.047 22.7441C109.152 22.9629 109.298 23.1429 109.484 23.2842C109.676 23.4209 109.899 23.5212 110.154 23.585C110.41 23.6488 110.685 23.6807 110.981 23.6807C111.364 23.6807 111.679 23.6283 111.925 23.5234C112.175 23.4141 112.362 23.2637 112.485 23.0723C112.613 22.8809 112.677 22.6621 112.677 22.416ZM122.609 23.5234V25H117.318V23.5234H122.609ZM117.893 15.0469V25H116.013V15.0469H117.893ZM121.919 19.1553V20.5977H117.318V19.1553H121.919ZM122.589 15.0469V16.5303H117.318V15.0469H122.589Z" fill="white"/>
</svg>
